<?xml version="1.0" encoding="utf-8"?>
<!-- Generator: Adobe Illustrator 18.1.1, SVG Export Plug-In . SVG Version: 6.00 Build 0)  -->
<svg version="1.1" id="图层_30" xmlns="http://www.w3.org/2000/svg" xmlns:xlink="http://www.w3.org/1999/xlink" x="0px" y="0px"
	 viewBox="0 0 1024 1024" enable-background="new 0 0 1024 1024" xml:space="preserve">
<g>
	<path fill="#FF0000" d="M706.673,134.579c24.077,3.161,59.061,8.24,109.768,16.379c28.751,4.615,56.584,9.259,79.226,13.098v70.198
		h-86.862h-64v64V832H631.965c2.987-14.917,5.516-31.4,7.177-49.315c4.599-49.592,1.65-100.509-8.766-151.336
		c-12.813-62.528-37-124.993-71.89-185.66l-0.299-0.52l-0.309-0.514C462.972,286.566,310.658,191.165,304.22,187.181l-41.286-25.55
		l-35.728,32.876l-41.171,37.883h-30.294v-69.391c70.8-11.027,140.645-21.486,186.029-27.721
		c9.522,22.059,22.989,41.432,40.085,57.437c17.901,16.759,39.46,29.548,64.078,38.013c23.784,8.178,50.622,12.325,79.771,12.325
		c75.019,0,120.077-29.311,144.666-53.9C686.038,173.485,698.266,154.977,706.673,134.579 M656.079,65.44
		c0,57.738-39.112,113.613-130.375,113.613c-91.262,0-130.375-50.288-135.962-113.613c-28.299,0-298,42.838-298,42.838V296.39H211
		l59.542-54.787c0,0,144.458,89.397,232.466,235.994C641,717.537,544.329,896,544.329,896h264.475V298.253h150.862V110.14
		C959.667,110.14,706.367,65.44,656.079,65.44L656.079,65.44z"/>
</g>
<g>
	<path fill="#FF0000" d="M287.064,420.303c17.532,17.352,38.656,40,59.879,66.905c29.716,37.672,53.248,75.686,69.94,112.985
		c19.854,44.362,29.92,87.662,29.92,128.697c0,40.092-6.913,73.112-20.548,98.142c-10.305,18.919-24.455,33.471-43.257,44.486
		c-27.548,16.139-64.757,24.322-110.595,24.322c-15.926,0-56.54-2.582-89.604-26.501c-15.49-11.205-27.242-25.54-35.928-43.824
		c-11.416-24.03-17.205-54.659-17.205-91.037c0-66.794,33.092-148.643,95.698-236.699
		C247.124,467.174,269.094,440.623,287.064,420.303 M283.579,331c0,0-217.913,206.053-217.913,403.478
		S209.079,959.84,272.404,959.84s238.4-11.286,238.4-230.95C510.804,509.226,283.579,331,283.579,331L283.579,331z"/>
</g>
<g>
	<path fill="#FF0000" d="M243.361,586.937c-30.692,0-75.538,67.756-75.538,137.228c0,78.546,47.703,123.971,79.402,123.971
		c5.884,0,11.212-1.563,15.586-4.771c27.937-20.488-17.694-69.844-17.694-119.2c0-49.356,40.509-102.903,12.106-131.306
		C253.175,588.811,248.462,586.937,243.361,586.937L243.361,586.937z"/>
</g>
</svg>
