<?xml version="1.0" encoding="utf-8"?>
<!-- Generator: Adobe Illustrator 18.1.1, SVG Export Plug-In . SVG Version: 6.00 Build 0)  -->
<svg version="1.1" id="图层_24" xmlns="http://www.w3.org/2000/svg" xmlns:xlink="http://www.w3.org/1999/xlink" x="0px" y="0px"
	 viewBox="0 0 1024 1024" enable-background="new 0 0 1024 1024" xml:space="preserve">
<path fill="#FF0096" d="M576.224,218.917l18.771,18.772l18.745,18.746h26.51h256.069v145.927l-148.28,49.427l-43.762,14.587v46.129
	v352.09h-32.033l-0.002-128.043l-0.001-63.999h-63.999H288.174h-64v64v128.042h-32.032V576.478v-28.553l-21.248-19.073
	c-29.978-26.91-42.769-50.944-42.769-80.362c0-29.724,10.52-53.758,31.268-71.435c0.254-0.217,0.51-0.432,0.767-0.646v8.068v64h64
	h288.063h63.999l0.001-63.999L576.224,218.917 M512.225,64.406l-0.003,320.069H224.16v-96.021
	c-70.015,0-160.034,53.012-160.034,160.035c0,52.512,24.505,92.52,64.017,127.988v352.116h160.032V736.552h320.069l0.003,192.042
	h160.032v-416.09l159.213-53.071c19.605-6.535,32.828-24.882,32.828-45.547V240.444c0-26.516-21.495-48.011-48.01-48.011H640.25
	L512.225,64.406L512.225,64.406z"/>
</svg>
