<?xml version="1.0" encoding="utf-8"?>
<!-- Generator: Adobe Illustrator 18.1.1, SVG Export Plug-In . SVG Version: 6.00 Build 0)  -->
<svg version="1.1" id="图层_20" xmlns="http://www.w3.org/2000/svg" xmlns:xlink="http://www.w3.org/1999/xlink" x="0px" y="0px"
	 viewBox="0 0 1024 1024" enable-background="new 0 0 1024 1024" xml:space="preserve">
<path fill="#FF0096" d="M896,198.109L396.996,63.667c-148.501,0-268.885,120.383-268.885,268.885
	c0,138.401,104.57,252.36,239.009,267.224v315.359c0,24.75,20.064,44.814,44.814,44.814h89.628c24.75,0,44.814-20.064,44.814-44.814
	V561.19L896,466.994V198.109z M192.111,332.551c0-54.727,21.312-106.178,60.009-144.875c36.827-36.827,85.199-57.908,136.958-59.86
	L705.254,213H704v239.44l-314.921,84.846c-51.759-1.952-100.132-23.033-136.959-59.86
	C213.423,438.729,192.111,387.278,192.111,332.551z M482.376,895.949H431.12v-299.12l51.257-13.668V895.949z M832,417.954
	l-64,17.243V229.905l64,17.243V417.954z"/>
</svg>
